HIERARCHY
ROOT Hips
{
  OFFSET 0 89.5177 0.535
  CHANNELS 6 Xposition Yposition Zposition Zrotation Xrotation Yrotation
  JOINT Spine
  {
    OFFSET 12.0259 -0.162855 1.69034e-005
    CHANNELS 3 Zrotation Xrotation Yrotation
    JOINT Spine1
    {
      OFFSET 15.3169 -0.0121922 0
      CHANNELS 3 Zrotation Xrotation Yrotation
      JOINT Spine2
      {
        OFFSET 15.3176 -0.0121908 0
        CHANNELS 3 Zrotation Xrotation Yrotation
        JOINT Neck
        {
          OFFSET 19.9142 1.56338 0
          CHANNELS 3 Zrotation Xrotation Yrotation
          JOINT Head
          {
            OFFSET 6.92651 0 0
            CHANNELS 3 Zrotation Xrotation Yrotation
            End Site
            {
              OFFSET 20.7666 0 0
            }
          }
          JOINT LeftShoulder
          {
            OFFSET -6.20654 0.708824 7.28219
            CHANNELS 3 Zrotation Xrotation Yrotation
            JOINT LeftArm
            {
              OFFSET 14.108 0 -1.52588e-005
              CHANNELS 3 Zrotation Xrotation Yrotation
              JOINT LeftForeArm
              {
                OFFSET 28.5802 0 0
                CHANNELS 3 Zrotation Xrotation Yrotation
                JOINT LeftHand
                {
                  OFFSET 27.092 0 0
                  CHANNELS 3 Zrotation Xrotation Yrotation
                  End Site
                  {
                    OFFSET 9.55928 -0.186424 0.145352
                  }
                }
              }
            }
          }
          JOINT RightShoulder
          {
            OFFSET -6.20654 0.708866 -7.28218
            CHANNELS 3 Zrotation Xrotation Yrotation
            JOINT RightArm
            {
              OFFSET 14.108 0 1.52588e-005
              CHANNELS 3 Zrotation Xrotation Yrotation
              JOINT RightForeArm
              {
                OFFSET 28.5802 0 0
                CHANNELS 3 Zrotation Xrotation Yrotation
                JOINT RightHand
                {
                  OFFSET 27.092 0 0
                  CHANNELS 3 Zrotation Xrotation Yrotation
                  End Site
                  {
                    OFFSET 9.55929 -0.186417 -0.145354
                  }
                }
              }
            }
          }
        }
      }
    }
  }
  JOINT LeftUpLeg
  {
    OFFSET 0.005 -0.535 8.837
    CHANNELS 3 Zrotation Xrotation Yrotation
    JOINT LeftLeg
    {
      OFFSET 39.9035 0 0
      CHANNELS 3 Zrotation Xrotation Yrotation
      JOINT LeftFoot
      {
        OFFSET 39.6689 0 0
        CHANNELS 3 Zrotation Xrotation Yrotation
        JOINT LeftToe
        {
          OFFSET 10.1624 13.6296 0
          CHANNELS 3 Zrotation Xrotation Yrotation
          End Site
          {
            OFFSET 8.38147 0 0
          }
        }
      }
    }
  }
  JOINT RightUpLeg
  {
    OFFSET 0.005 -0.535 -8.837
    CHANNELS 3 Zrotation Xrotation Yrotation
    JOINT RightLeg
    {
      OFFSET 39.9035 0 0
      CHANNELS 3 Zrotation Xrotation Yrotation
      JOINT RightFoot
      {
        OFFSET 39.6689 0 0
        CHANNELS 3 Zrotation Xrotation Yrotation
        JOINT RightToe
        {
          OFFSET 10.1624 13.6296 0
          CHANNELS 3 Zrotation Xrotation Yrotation
          End Site
          {
            OFFSET 8.38147 0 0
          }
        }
      }
    }
  }
}
MOTION
Frames:	12
Frame Time:	0.0333333
226.541 89.4549 -30.4518 178.033 -85.1397 89.9419 -0.203936 -1.71309 -0.809275 -0.43235 -3.42265 -1.62556 -0.432351 -3.42265 -1.62557 -8.30669e-012 -9.0191e-006 -5.27751e-005 10 -1.69084e-006 2.312e-005 -178.078 -28.4612 -85.9716 -25.4 -47.7334 7.81585 -8.6266 -6.36111e-015 -4.77083e-015 -28.8902 -53.144 -32.2106 -178.3 21.7467 85.419 -28.2908 40.6167 -5.73101 -7.46485 -3.18055e-015 -7.95139e-016 -63.7499 69.0499 66.7832 -3.23748 7.36968 -177.728 -7.89359 7.95139e-016 1.19271e-015 10.2951 6.08534 -9.1386 90 4.34841e-017 -5.96354e-016 -3.81647 -10.1838 174.285 -7.2732 0 -5.96354e-016 8.40398 -3.788 5.49247 90 -4.96962e-017 -1.59028e-015 
226.56 89.4544 -30.5226 177.698 -85.0912 89.6153 -0.232326 -1.70554 -0.811468 -0.489121 -3.40713 -1.63076 -0.489121 -3.40713 -1.63077 -8.30828e-012 -9.0191e-006 -5.27751e-005 10.0872 0.0434165 -0.0357619 -178.11 -28.4323 -86.036 -25.1763 -47.7725 7.98852 -8.56181 3.18055e-015 -1.59028e-015 -28.6754 -53.1818 -31.9911 -178.307 21.7206 85.4332 -28.1111 40.7225 -5.88626 -7.49167 -1.59028e-014 -7.95139e-016 -63.7879 69.0718 66.8237 -3.17357 7.33188 -177.733 -7.75769 -2.38542e-015 -5.96354e-016 10.2393 6.07809 -9.12773 90 -1.33403e-015 -1.98785e-016 -3.7434 -10.1898 174.306 -7.14574 3.18056e-015 -5.96354e-016 8.38394 -3.7551 5.44164 90 -8.07563e-017 -0 
226.577 89.454 -30.5962 177.378 -85.0529 89.31 -0.256812 -1.69555 -0.817198 -0.538144 -3.38677 -1.6429 -0.538145 -3.38677 -1.64291 -8.30748e-012 -9.0191e-006 -5.27751e-005 10.1261 0.0908892 -0.0475778 -178.118 -28.4065 -86.0493 -25.0478 -47.8025 8.03301 -8.54819 3.18055e-015 -3.18055e-015 -28.9126 -53.1822 -32.2398 -178.302 21.6964 85.4163 -27.9394 40.7619 -5.97879 -7.52498 -6.36111e-015 -7.95139e-016 -63.8425 69.0428 66.8778 -3.10535 7.31139 -177.743 -7.63875 -4.77083e-015 5.96354e-016 10.1934 6.08138 -9.13277 90 -1.50642e-015 -1.98785e-016 -3.68688 -10.2192 174.312 -7.06568 -1.59028e-015 -3.97569e-016 8.3925 -3.74967 5.41999 90 2.73329e-016 7.95139e-016 
226.595 89.4534 -30.6709 177.23 -85.0014 89.1562 -0.278801 -1.68522 -0.813628 -0.581893 -3.36581 -1.63634 -0.581893 -3.36581 -1.63635 -8.30907e-012 -9.0191e-006 -5.27751e-005 10.1531 0.134201 -0.0495011 -178.129 -28.3977 -86.0696 -24.8587 -47.7721 8.14361 -8.56453 -1.27222e-014 -0 -28.8628 -53.2234 -32.1937 -178.307 21.6569 85.4199 -27.8088 40.671 -6.00267 -7.53166 0 1.59028e-015 -63.8309 69.0559 66.8673 -3.06001 7.31094 -177.733 -7.54062 3.18055e-015 1.98785e-016 10.1694 6.08651 -9.14065 90 -1.44429e-016 -1.98785e-016 -3.62318 -10.231 174.348 -6.9493 -1.59028e-015 -1.98785e-016 8.3655 -3.73417 5.35433 90 -2.29845e-016 -0 
226.614 89.4536 -30.741 177.015 -84.9853 88.9257 -0.291567 -1.67538 -0.808027 -0.60713 -3.34598 -1.62544 -0.607131 -3.34598 -1.62545 -8.30907e-012 -9.0191e-006 -5.27751e-005 10.1808 0.15454 -0.0261863 -178.146 -28.3673 -86.1015 -24.6186 -47.6832 8.26469 -8.54768 3.18055e-015 3.18055e-015 -28.8662 -53.2604 -32.2027 -178.31 21.6616 85.4299 -27.6636 40.6577 -6.06786 -7.5617 -6.36111e-015 -1.59028e-015 -63.8093 69.0863 66.8464 -3.01443 7.25666 -177.712 -7.50582 1.59028e-015 1.98785e-015 10.163 6.05381 -9.09147 90 -7.76503e-017 -5.96354e-016 -3.54577 -10.1949 174.389 -6.88465 1.59028e-015 -9.93923e-016 8.35493 -3.68015 5.30292 90 -1.86361e-017 -7.95139e-016 
226.623 89.4541 -30.8153 177.083 -85.0168 89.0133 -0.294391 -1.66817 -0.804806 -0.613031 -3.3315 -1.62931 -0.613031 -3.3315 -1.62932 -8.3051e-012 -9.0191e-006 -5.27751e-005 10.1692 0.180787 -0.010359 -178.172 -28.3609 -86.1566 -24.1992 -47.5694 8.49468 -8.64018 3.18055e-015 -3.18055e-015 -28.9361 -53.3549 -32.2898 -178.306 21.6406 85.4153 -27.4855 40.6581 -6.13161 -7.64356 -6.36111e-015 -0 -63.7819 69.1364 66.8163 -2.91492 7.24159 -177.735 -7.47139 0 1.39149e-015 10.1456 6.02994 -9.0555 90 -5.26469e-016 3.97569e-016 -3.44187 -10.1826 174.38 -6.84212 0 -1.98785e-016 8.37442 -3.67104 5.28762 90 1.11816e-016 -2.38542e-015 
226.627 89.4542 -30.8808 177.796 -85.0278 89.7436 -0.291777 -1.65839 -0.8021 -0.607492 -3.31201 -1.62177 -0.607492 -3.31201 -1.62178 -8.30669e-012 -9.0191e-006 -5.27751e-005 10.0615 0.230956 -0.0290236 -178.163 -28.3874 -86.1399 -23.6748 -47.3698 8.723 -8.74045 -6.36111e-015 -3.18055e-015 -29.0153 -53.3992 -32.3796 -178.294 21.6462 85.3828 -27.3858 40.5632 -6.1379 -7.7391 -1.27222e-014 -1.59028e-015 -63.9219 69.0892 66.9672 -2.8321 7.29117 -177.752 -7.43114 1.59028e-015 7.95139e-016 10.1477 6.02139 -9.04292 90 -1.35422e-015 3.97569e-016 -3.40984 -10.1763 174.365 -6.86274 -1.59028e-015 5.96354e-016 8.41875 -3.715 5.31202 90 -1.73937e-016 3.18055e-015 
226.632 89.4541 -30.9368 178.643 -85.0094 90.5958 -0.293694 -1.64961 -0.800527 -0.610795 -3.29447 -1.61033 -0.610795 -3.29447 -1.61034 -8.30748e-012 -9.0191e-006 -5.27751e-005 9.97621 0.254662 -0.0412161 -178.174 -28.3533 -86.1595 -22.8798 -47.218 9.04026 -8.80841 0 3.18055e-015 -29.1002 -53.4507 -32.4763 -178.289 21.6513 85.3719 -27.2092 40.4828 -6.21545 -7.80745 -3.18055e-015 7.95139e-016 -63.9619 69.096 67.01 -2.80907 7.35411 -177.753 -7.44617 0 7.95139e-016 10.185 6.01568 -9.03468 90 5.32681e-016 1.98785e-016 -3.4134 -10.1411 174.359 -6.88686 0 7.95139e-016 8.45665 -3.73879 5.34709 90 3.10601e-017 7.95139e-016 
226.639 89.4539 -30.9857 179.778 -84.9761 91.7558 -0.301689 -1.64321 -0.79987 -0.626731 -3.28154 -1.61031 -0.626731 -3.28154 -1.61032 -8.30828e-012 -9.0191e-006 -5.27751e-005 9.9533 0.282336 -0.0254871 -178.182 -28.3362 -86.1737 -21.9858 -47.3362 9.28697 -8.70359 9.54166e-015 -1.59028e-015 -28.86 -53.5271 -32.2353 -178.276 21.6463 85.3359 -26.9923 40.2918 -6.291 -7.87885 6.36111e-015 1.59028e-015 -63.8885 69.1679 66.9309 -2.79133 7.42311 -177.778 -7.44566 -1.59028e-015 5.96354e-016 10.197 5.99504 -9.00388 90 -2.03444e-016 -1.98785e-016 -3.42635 -10.0857 174.335 -6.88182 0 -1.98785e-016 8.492 -3.77702 5.3938 90 -2.60905e-016 1.59028e-015 
226.651 89.4532 -31.0312 -178.184 -84.9033 93.8097 -0.320687 -1.62716 -0.799453 -0.664368 -3.2492 -1.60717 -0.664368 -3.2492 -1.60718 -8.30828e-012 -9.0191e-006 -5.27751e-005 9.94442 0.249113 0.0231858 -178.216 -28.2672 -86.2379 -20.7003 -47.3032 9.60867 -8.83544 3.18055e-015 -0 -28.7371 -53.5806 -32.1144 -178.268 21.6323 85.3115 -26.6919 40.2463 -6.44596 -7.90164 0 7.95139e-016 -63.9216 69.1377 66.9674 -2.7415 7.54708 -177.801 -7.33175 0 -7.95139e-016 10.1623 5.94662 -8.93136 90 1.11816e-015 -0 -3.45662 -9.97693 174.335 -6.82464 3.18056e-015 -1.59028e-015 8.49235 -3.82991 5.419 90 2.48481e-016 -0 
226.668 89.4556 -31.0701 -176.053 -84.7602 95.9383 -0.352007 -1.60761 -0.799213 -0.726628 -3.20968 -1.60403 -0.726629 -3.20968 -1.60404 -8.30748e-012 -9.0191e-006 -5.27751e-005 9.94129 0.16737 0.0928183 -178.246 -28.2477 -86.2987 -19.4279 -47.0807 9.77632 -9.06151 3.18055e-015 3.18055e-015 -28.6311 -53.701 -32.0202 -178.263 21.661 85.3024 -26.3593 40.1881 -6.61457 -7.88529 0 -0 -63.8459 69.2289 66.8829 -2.77521 7.69029 -177.8 -7.24959 1.59028e-015 -7.95139e-016 10.1449 5.89987 -8.86153 90 -1.14922e-016 -1.98785e-016 -3.48115 -9.88122 174.37 -6.62666 3.18056e-015 1.39149e-015 8.41826 -3.91342 5.43508 90 2.98177e-016 -1.59028e-015 
226.688 89.4612 -31.1365 -173.871 -84.6145 98.1306 -0.390446 -1.58417 -0.799081 -0.803564 -3.16222 -1.61332 -0.803564 -3.16222 -1.61333 -8.30748e-012 -9.0191e-006 -5.27751e-005 9.95559 0.139366 0.108807 -178.311 -28.2606 -86.4364 -18.1435 -47.1416 9.84207 -9.23988 6.36111e-015 -0 -28.6747 -53.7579 -32.0742 -178.257 21.6698 85.288 -25.8476 40.1238 -6.82649 -7.95397 -3.18055e-015 -7.95139e-016 -63.7993 69.297 66.8293 -2.74981 7.86527 -177.814 -7.09984 -1.59028e-015 -7.95139e-016 10.0841 5.86192 -8.80489 90 -3.33896e-017 -0 -3.49428 -9.82639 174.371 -6.42279 1.59028e-015 -1.98785e-016 8.39303 -4.04214 5.64727 90 1.80149e-016 -0 
